<svg xmlns="http://www.w3.org/2000/svg" width="356.25" viewBox="0 0 356.25 375" height="375" version="1.0"><defs><clipPath id="a"><path d="M 30.890625 33 L 290 33 L 290 374.605469 L 30.890625 374.605469 Z M 30.890625 33"/></clipPath><clipPath id="b"><path d="M 59 5 L 318.285156 5 L 318.285156 351 L 59 351 Z M 59 5"/></clipPath></defs><g clip-path="url(#a)"><path d="M 289.546875 371.613281 C 289.546875 375.578125 286.328125 378.796875 282.359375 378.796875 L 38.074219 378.796875 C 34.109375 378.796875 30.890625 375.578125 30.890625 371.613281 L 30.890625 41.109375 C 30.890625 37.140625 34.109375 33.921875 38.074219 33.921875 L 74 33.921875 L 74 48.292969 L 45.261719 48.292969 L 45.261719 364.425781 L 275.175781 364.425781 L 275.175781 335.6875 L 289.546875 335.6875 Z M 289.546875 371.613281"/></g><g clip-path="url(#b)"><path d="M 59.628906 342.871094 L 59.628906 12.367188 C 59.628906 8.402344 62.847656 5.183594 66.816406 5.183594 L 243.59375 5.183594 C 245.464844 5.183594 247.261719 5.933594 248.605469 7.28125 L 316.191406 74.863281 C 317.535156 76.210938 318.285156 78.003906 318.285156 79.875 L 318.285156 342.871094 C 318.285156 346.839844 315.066406 350.058594 311.101562 350.058594 L 66.816406 350.058594 C 62.847656 350.058594 59.628906 346.839844 59.628906 342.871094 Z M 303.914062 335.6875 L 303.914062 91.402344 L 239.25 91.402344 C 235.285156 91.402344 232.066406 88.183594 232.066406 84.21875 L 232.066406 19.554688 L 74 19.554688 L 74 335.6875 Z M 298.003906 77.03125 L 246.4375 25.464844 L 246.4375 77.03125 Z M 298.003906 77.03125"/></g><path d="M 267.992188 148.882812 L 109.925781 148.882812 C 105.957031 148.882812 102.738281 145.664062 102.738281 141.695312 C 102.738281 137.730469 105.957031 134.511719 109.925781 134.511719 L 267.992188 134.511719 C 271.957031 134.511719 275.175781 137.730469 275.175781 141.695312 C 275.175781 145.664062 271.957031 148.882812 267.992188 148.882812 Z M 210.511719 191.992188 L 109.925781 191.992188 C 105.957031 191.992188 102.738281 188.773438 102.738281 184.804688 C 102.738281 180.839844 105.957031 177.621094 109.925781 177.621094 L 210.511719 177.621094 C 214.480469 177.621094 217.699219 180.839844 217.699219 184.804688 C 217.699219 188.773438 214.480469 191.992188 210.511719 191.992188 Z M 239.25 235.101562 L 109.925781 235.101562 C 105.957031 235.101562 102.738281 231.882812 102.738281 227.914062 C 102.738281 223.949219 105.957031 220.730469 109.925781 220.730469 L 239.25 220.730469 C 243.21875 220.730469 246.4375 223.949219 246.4375 227.914062 C 246.4375 231.882812 243.21875 235.101562 239.25 235.101562 Z M 181.773438 278.210938 L 109.925781 278.210938 C 105.957031 278.210938 102.738281 274.992188 102.738281 271.023438 C 102.738281 267.058594 105.957031 263.839844 109.925781 263.839844 L 181.773438 263.839844 C 185.738281 263.839844 188.957031 267.058594 188.957031 271.023438 C 188.957031 274.992188 185.738281 278.210938 181.773438 278.210938 Z M 181.773438 278.210938"/></svg>