<svg xmlns="http://www.w3.org/2000/svg" width="375" viewBox="0 0 375 375" height="375" version="1.0"><defs><clipPath id="a"><path d="M 0 16 L 374.992188 16 L 374.992188 359 L 0 359 Z M 0 16"/></clipPath></defs><path fill="#EE4723" d="M 77.546875 215.554688 C 70.035156 220.460938 65.132812 228.984375 59.101562 235.386719 C 50.347656 244.691406 41.816406 253.925781 34.441406 264.402344 C 28.34375 273.15625 22.78125 282.238281 17.753906 291.644531 C 18.078125 291.878906 18.363281 292.148438 18.609375 292.460938 C 18.929688 292.871094 19.261719 293.265625 19.585938 293.675781 C 30.3125 276.941406 43.992188 262.332031 56.492188 246.925781 C 61.125 241.207031 65.691406 235.421875 70.488281 229.804688 C 72.441406 227.539062 75.335938 223.242188 78.710938 222.273438 C 77.984375 220.09375 77.597656 217.851562 77.546875 215.554688 Z M 77.546875 215.554688"/><path fill="#FDBE10" d="M 82.1875 230.140625 C 82.023438 230.238281 81.851562 230.328125 81.675781 230.40625 L 81.519531 230.464844 L 81.179688 230.789062 C 80.320312 231.648438 79.585938 232.449219 78.824219 233.359375 C 76.894531 235.539062 75.019531 237.765625 73.175781 240.007812 C 69.046875 245.007812 65.023438 250.082031 60.910156 255.097656 C 49.277344 269.296875 36.429688 282.875 26.558594 298.46875 C 26.132812 299.160156 25.5625 299.695312 24.847656 300.078125 C 27.605469 303.234375 30.460938 306.292969 33.414062 309.261719 C 33.414062 309.246094 33.414062 309.234375 33.414062 309.21875 C 35.613281 302.722656 42.765625 298.210938 47.425781 293.53125 C 52.839844 288.09375 57.964844 282.402344 62.847656 276.496094 C 72.199219 265.214844 80.535156 253 90.636719 242.371094 C 87.453125 238.546875 84.640625 234.46875 82.1875 230.140625 Z M 82.1875 230.140625"/><path fill="#F4831F" d="M 96.390625 248.757812 C 86.59375 259.214844 78.480469 271.164062 69.296875 282.136719 C 64.378906 288.007812 59.316406 293.785156 53.878906 299.167969 C 49.835938 303.167969 42.972656 307.472656 41.097656 313.011719 C 40.832031 313.921875 40.289062 314.617188 39.46875 315.097656 C 41.8125 317.253906 44.1875 319.367188 46.605469 321.433594 C 51.597656 325.710938 56.242188 330.847656 61.332031 335.238281 C 61.300781 334.914062 61.300781 334.585938 61.332031 334.261719 C 61.757812 329.375 65.074219 326.429688 67.789062 322.699219 C 71.34375 317.828125 75.308594 313.285156 78.925781 308.378906 C 83.929688 301.53125 88.347656 294.546875 94.054688 288.324219 C 98.839844 283.105469 103.5625 277.804688 108.101562 272.363281 C 110.175781 269.878906 112.257812 267.390625 114.175781 264.789062 C 114.644531 264.144531 115.089844 263.53125 115.503906 262.886719 C 108.09375 259.378906 101 253.371094 96.390625 248.757812 Z M 96.390625 248.757812"/><path fill="#FDBE10" d="M 81.761719 230.242188 L 81.53125 230.457031 L 81.675781 230.40625 C 82.121094 230.183594 82.15625 229.96875 81.761719 230.242188 Z M 81.761719 230.242188"/><path fill="#F4831F" d="M 39.796875 326.851562 C 30.605469 318.917969 22.144531 310.273438 14.40625 300.925781 C 12.871094 306.546875 12.160156 312.753906 13.640625 318.316406 C 15.46875 325.113281 19.296875 329.949219 24.855469 334.226562 C 35.75 342.652344 50.230469 350.183594 64.371094 349.632812 C 65.417969 349.566406 66.359375 349.851562 67.191406 350.492188 L 67.746094 349.925781 C 56.988281 344.6875 48.722656 334.640625 39.796875 326.851562 Z M 39.796875 326.851562"/><path fill="#73CACD" d="M 173.230469 146.578125 C 166.824219 141.203125 160.714844 135.449219 154.726562 129.664062 C 149.066406 124.152344 143.144531 118.75 138.039062 112.714844 C 128.027344 100.898438 118.980469 87.894531 105.625 79.574219 C 105.238281 79.34375 104.894531 79.058594 104.597656 78.71875 C 105.675781 76.949219 106.84375 75.210938 108.023438 73.371094 C 110.9375 68.714844 111.546875 63.5625 110.9375 58.1875 C 110.457031 53.949219 109.519531 49.816406 108.128906 45.785156 C 107.375 42.863281 106.34375 40.046875 105.027344 37.335938 C 104.699219 37.382812 104.375 37.382812 104.050781 37.335938 C 103.082031 35.84375 101.984375 34.457031 100.761719 33.167969 C 100.65625 32.902344 100.5 32.667969 100.296875 32.464844 L 97.726562 29.898438 C 97.503906 29.671875 97.238281 29.515625 96.929688 29.425781 C 95.535156 28.214844 93.9375 27.410156 92.132812 27.003906 C 93.121094 34.800781 92.132812 42.6875 92.132812 50.59375 C 92.132812 52.015625 91.644531 53.734375 90.257812 54.472656 C 79.628906 60.050781 71.902344 71.203125 59.953125 74.355469 C 46.707031 77.839844 37.457031 64.015625 26.191406 60.257812 C 24.316406 59.632812 22.9375 58.476562 22.765625 56.378906 C 21.894531 48.8125 21.511719 41.222656 21.625 33.605469 C 19.058594 33.929688 16.800781 34.9375 14.839844 36.625 C 14.394531 37.050781 13.878906 37.371094 13.300781 37.585938 C 13.238281 38.160156 13.035156 38.675781 12.683594 39.136719 C 12.335938 39.597656 11.890625 39.9375 11.355469 40.152344 C 11.355469 40.21875 11.3125 40.289062 11.296875 40.367188 C 10.988281 41.4375 10.710938 42.515625 10.5 43.609375 C 10.078125 45.792969 9.726562 47.992188 9.480469 50.199219 C 8.980469 54.40625 8.945312 58.617188 9.375 62.832031 C 10.414062 72.539062 14.019531 81.527344 21.421875 88.125 C 28.660156 94.578125 37.464844 99.605469 47.117188 101.042969 C 55.042969 102.222656 67.34375 103.78125 74.324219 98.75 C 76.730469 97.035156 79.207031 98.25 80.320312 100.253906 C 80.992188 100.570312 81.550781 101.023438 81.992188 101.617188 C 86.523438 107.546875 93.769531 110.484375 99.261719 115.308594 C 105.128906 120.515625 110.464844 126.265625 116.144531 131.667969 C 128.472656 143.382812 141.964844 153.773438 154.050781 165.773438 C 160.550781 159.449219 167.027344 153.109375 173.394531 146.664062 Z M 173.230469 146.578125"/><path fill="#FDBE10" d="M 79.9375 230.664062 C 80.480469 230.714844 81.007812 230.648438 81.519531 230.464844 C 81.007812 230.644531 80.476562 230.710938 79.9375 230.664062 Z M 79.9375 230.664062"/><path fill="#73CACD" d="M 359.65625 235.019531 C 359.175781 234.9375 358.734375 234.761719 358.328125 234.496094 C 352.65625 230.910156 346.644531 227.050781 339.832031 226.230469 C 334.839844 225.628906 329.648438 226.46875 324.679688 227.210938 C 318.753906 228.070312 303.710938 229.679688 302.757812 237.484375 C 302.375 240.617188 299.476562 241.414062 297.183594 240.515625 C 296.890625 240.707031 296.574219 240.855469 296.238281 240.957031 C 295.902344 241.0625 295.554688 241.113281 295.203125 241.113281 C 294.851562 241.113281 294.507812 241.0625 294.171875 240.957031 C 293.832031 240.855469 293.519531 240.707031 293.226562 240.515625 C 275.007812 230.035156 258.058594 217.804688 242.375 203.820312 C 227.726562 190.597656 214.253906 175.574219 197.285156 165.191406 C 196.683594 164.835938 196.195312 164.367188 195.820312 163.78125 C 191.289062 168.601562 186.757812 173.425781 182.183594 178.203125 C 179.9375 180.539062 177.625 182.78125 175.328125 185 C 175.734375 185.238281 176.097656 185.53125 176.417969 185.878906 C 176.738281 186.226562 177 186.613281 177.203125 187.039062 C 177.40625 187.464844 177.546875 187.910156 177.617188 188.375 C 177.6875 188.839844 177.691406 189.308594 177.625 189.773438 C 178.78125 191.007812 180.042969 192.121094 181.410156 193.113281 C 183.414062 194.824219 185.496094 196.375 187.554688 197.992188 C 192.804688 202.117188 197.457031 207.023438 202.421875 211.472656 C 211.03125 219.175781 220.414062 225.679688 229.792969 232.347656 C 238.023438 238.210938 246.332031 244.007812 254.984375 249.234375 C 258.984375 251.75 263.128906 253.992188 267.421875 255.964844 C 268.703125 256.578125 270.03125 257.058594 271.40625 257.410156 C 271.621094 257.460938 273.324219 257.632812 272.425781 257.648438 L 272.941406 257.648438 C 276.085938 256.5625 279.023438 259.359375 279.023438 261.929688 C 279.351562 262.230469 279.628906 262.574219 279.855469 262.957031 C 280.082031 263.34375 280.246094 263.753906 280.34375 264.1875 C 280.445312 264.625 280.480469 265.0625 280.449219 265.507812 C 280.414062 265.953125 280.316406 266.382812 280.152344 266.800781 C 268.390625 298.046875 321.460938 330.992188 342.171875 306.847656 C 336.226562 306.429688 330.359375 305.316406 324.355469 305.136719 C 319.324219 304.957031 314.246094 304.28125 310.777344 300.300781 C 307.308594 296.320312 307.214844 290.695312 307.164062 285.800781 C 307.109375 280.492188 306.1875 274.914062 307.789062 269.742188 C 311.917969 256.246094 331.285156 253.859375 343.097656 253.773438 C 351.175781 253.773438 359.097656 255.800781 364.839844 260.621094 C 366.089844 251.128906 366.875 241.457031 359.65625 235.019531 Z M 359.65625 235.019531"/><path fill="#FDBE10" d="M 302.21875 41.203125 C 301.304688 39.132812 298.203125 35.589844 296.144531 33.425781 C 293.386719 30.523438 290.148438 26.765625 286.304688 25.277344 L 286.183594 25.226562 C 286.109375 25.34375 286.015625 25.445312 285.902344 25.523438 C 284.816406 26.351562 283.851562 27.296875 283.003906 28.367188 C 281.371094 30.351562 279.886719 32.441406 278.414062 34.546875 C 276.636719 36.910156 274.578125 38.996094 272.238281 40.800781 C 269.824219 42.832031 266.242188 45.175781 264.820312 48.121094 C 262.035156 54.019531 263.105469 60.8125 262.5 67.140625 C 262.449219 68.117188 262.070312 68.941406 261.359375 69.613281 C 261.359375 69.722656 261.308594 69.835938 261.273438 69.9375 C 261.050781 70.570312 260.621094 71.058594 260.417969 71.648438 C 260.308594 72.054688 260.132812 72.425781 259.882812 72.765625 C 259.636719 73.101562 259.335938 73.382812 258.980469 73.609375 C 258.625 73.832031 258.242188 73.984375 257.832031 74.066406 C 257.421875 74.144531 257.007812 74.148438 256.597656 74.070312 C 247.035156 81.773438 239.191406 91.6875 230.367188 100.160156 C 220.136719 109.976562 209.953125 119.683594 200.488281 130.253906 C 181.640625 151.34375 160.921875 170.679688 140.839844 190.597656 C 144.070312 193.59375 147.222656 196.671875 150.359375 199.773438 C 156.226562 189.433594 166.496094 182.148438 174.601562 173.683594 C 185.085938 162.746094 195.382812 151.617188 205.808594 140.628906 C 216.230469 129.636719 226.546875 118.109375 236.644531 106.589844 C 241.621094 100.90625 246.417969 94.992188 251.714844 89.597656 C 256.441406 84.78125 261.417969 80.183594 266.207031 75.46875 C 266.976562 74.675781 267.910156 74.246094 269.007812 74.175781 C 273.515625 71.367188 279.132812 70.46875 283.175781 66.644531 C 287.21875 62.816406 290.648438 58.296875 294.46875 54.222656 C 296.769531 51.777344 304.019531 45.261719 302.21875 41.203125 Z M 302.21875 41.203125"/><path fill="#EE4723" d="M 124.015625 265.625 C 122.535156 269.050781 119.058594 272.472656 117.300781 274.648438 C 112.726562 280.28125 107.949219 285.773438 103.082031 291.117188 C 101.144531 293.253906 99.21875 295.394531 97.222656 297.464844 C 94.011719 300.820312 91.699219 305.167969 89 308.980469 C 85.367188 314.0625 81.640625 319.078125 77.742188 323.949219 C 75.085938 327.277344 70.144531 331.488281 69.757812 335.929688 C 69.753906 336.371094 69.664062 336.789062 69.496094 337.195312 C 69.324219 337.597656 69.085938 337.957031 68.78125 338.269531 C 68.472656 338.582031 68.121094 338.828125 67.71875 339.003906 C 67.320312 339.183594 66.898438 339.277344 66.460938 339.296875 C 68.136719 340.472656 69.898438 341.511719 71.738281 342.410156 C 72.539062 342.785156 73.15625 343.355469 73.589844 344.121094 C 90.960938 326.429688 107.785156 307.890625 121.652344 287.359375 C 125.328125 281.914062 130.628906 275.460938 132.128906 268.957031 C 132.453125 267.546875 132.613281 266.121094 132.609375 264.675781 C 129.839844 265.839844 126.976562 266.15625 124.015625 265.625 Z M 124.015625 265.625"/><path fill="#FDBE10" d="M 156.835938 220.390625 C 153.90625 213.117188 146.347656 208.648438 141.261719 203.015625 C 137.097656 198.410156 132.222656 194.457031 127.921875 189.945312 C 125.84375 187.753906 122.269531 184.367188 120.769531 180.796875 C 120.46875 180.886719 120.160156 180.945312 119.847656 180.976562 C 116.417969 181.300781 110.644531 182.039062 109.164062 185.847656 C 108.101562 188.578125 109.738281 191.691406 111.3125 193.890625 C 114.40625 198.171875 117.75 202.242188 121.34375 206.105469 C 126.023438 211.324219 131.09375 216.128906 136.550781 220.527344 C 140.6875 223.78125 145.707031 227.632812 151.113281 228.230469 C 151.351562 228.246094 151.59375 228.246094 151.832031 228.230469 C 152.074219 228.210938 152.3125 228.183594 152.546875 228.136719 C 152.785156 228.089844 153.015625 228.03125 153.246094 227.957031 C 153.472656 227.878906 153.695312 227.792969 153.914062 227.6875 C 154.132812 227.585938 154.34375 227.46875 154.546875 227.339844 C 154.75 227.210938 154.945312 227.070312 155.128906 226.917969 C 155.3125 226.765625 155.488281 226.601562 155.65625 226.425781 C 155.820312 226.25 155.972656 226.066406 156.113281 225.871094 C 156.257812 225.675781 156.386719 225.476562 156.503906 225.265625 C 156.617188 225.054688 156.722656 224.835938 156.8125 224.613281 C 156.898438 224.390625 156.976562 224.164062 157.035156 223.929688 C 157.097656 223.695312 157.144531 223.460938 157.175781 223.222656 C 157.207031 222.984375 157.222656 222.746094 157.222656 222.503906 C 157.222656 222.265625 157.210938 222.023438 157.183594 221.785156 C 157.152344 221.546875 157.109375 221.3125 157.050781 221.078125 C 156.992188 220.84375 156.921875 220.617188 156.835938 220.390625 Z M 156.835938 220.390625"/><path fill="#F4831F" d="M 136.789062 231.226562 C 125.371094 223.625 115.632812 213.363281 107.175781 202.632812 C 106.859375 202.238281 106.542969 201.828125 106.226562 201.425781 C 102.839844 204.351562 99.1875 206.902344 95.269531 209.066406 C 92.925781 210.175781 90.484375 210.996094 87.945312 211.53125 C 87.433594 211.953125 87.042969 212.460938 86.769531 213.0625 C 86.496094 213.664062 86.367188 214.296875 86.386719 214.957031 C 86.46875 217.667969 87.074219 220.257812 88.203125 222.726562 C 91.132812 229.625 95.910156 235.933594 101.101562 241.292969 C 106.292969 246.652344 112.382812 252.058594 119.382812 255.140625 C 123.933594 257.160156 128.394531 258.09375 131.375 254.78125 C 130.417969 249.425781 129.945312 243.722656 132.171875 238.570312 C 133.402344 235.929688 134.941406 233.480469 136.789062 231.226562 Z M 136.789062 231.226562"/><path d="M 81.53125 230.457031 L 81.683594 230.398438 Z M 81.53125 230.457031"/><g clip-path="url(#a)"><path d="M 374.15625 246.144531 C 373.609375 236.800781 368.257812 229.816406 360.453125 225.117188 C 359.8125 224.710938 359.117188 224.507812 358.363281 224.5 C 352.734375 221.1875 346.875 218.507812 340.246094 217.652344 C 334.09375 216.90625 327.59375 218.046875 321.511719 219.054688 C 313.089844 220.449219 299.640625 223.148438 295.519531 231.894531 C 278.144531 221.683594 261.957031 209.84375 246.96875 196.375 C 232.175781 183.023438 218.597656 168.257812 201.5 157.738281 C 205.089844 153.914062 208.6875 150.101562 212.292969 146.292969 C 222.476562 135.605469 232.300781 124.578125 242.035156 113.488281 C 247.035156 107.785156 251.894531 101.941406 257.074219 96.410156 C 261.257812 91.96875 265.746094 87.851562 270.128906 83.574219 C 270.773438 83.429688 271.34375 83.144531 271.84375 82.71875 C 274.542969 80.414062 278.472656 79.464844 281.652344 77.871094 C 284.917969 76.171875 287.871094 74.035156 290.5 71.460938 C 292.976562 69.117188 294.945312 66.324219 297.207031 63.808594 C 299.691406 61.019531 302.347656 58.417969 304.773438 55.558594 C 308.933594 50.59375 311.855469 44.917969 310.304688 38.371094 C 309.261719 33.945312 304.09375 29.402344 301.132812 26.277344 C 297.695312 22.675781 293.414062 18.507812 288.460938 17.015625 C 282.414062 15.203125 277.644531 21.167969 274.457031 25.40625 C 272.503906 27.972656 270.953125 30.6875 268.460938 32.835938 C 265.285156 35.414062 262.257812 38.152344 259.371094 41.050781 C 253.296875 47.574219 254.78125 57.074219 254.09375 65.179688 C 243.644531 72.960938 235.378906 83.324219 226.101562 92.390625 C 215.632812 102.660156 204.746094 112.382812 195.089844 123.414062 C 189.953125 129.261719 184.683594 134.953125 179.296875 140.535156 C 179.167969 140.398438 179.019531 140.261719 178.867188 140.125 C 166.015625 129.347656 153.058594 117.5 142.339844 104.59375 C 133.328125 93.742188 124.8125 82.800781 113.386719 74.578125 C 113.667969 74.453125 113.933594 74.308594 114.191406 74.140625 C 120.25 70.039062 118.03125 60.445312 117.78125 54.128906 C 115.375 46.261719 115.597656 37.34375 110.929688 30.574219 C 108.804688 27.652344 106.351562 25.039062 103.570312 22.734375 C 103.253906 22.792969 102.949219 22.890625 102.652344 23.015625 C 101.582031 22.054688 100.414062 21.222656 99.152344 20.523438 C 97.890625 19.820312 96.566406 19.273438 95.179688 18.871094 C 93.792969 18.472656 92.378906 18.230469 90.9375 18.152344 C 89.496094 18.070312 88.066406 18.152344 86.644531 18.394531 C 86.320312 18.429688 86.003906 18.496094 85.695312 18.601562 C 85.386719 18.703125 85.09375 18.839844 84.816406 19.011719 C 84.539062 19.179688 84.28125 19.378906 84.046875 19.605469 C 83.816406 19.832031 83.609375 20.078125 83.429688 20.351562 C 83.253906 20.625 83.105469 20.914062 82.992188 21.21875 C 82.878906 21.523438 82.800781 21.835938 82.757812 22.15625 C 82.714844 22.480469 82.707031 22.804688 82.734375 23.128906 C 82.761719 23.453125 82.828125 23.769531 82.925781 24.078125 C 85.066406 31.925781 83.945312 40.296875 83.628906 48.378906 C 74.976562 53.582031 68.304688 62.140625 58.785156 65.777344 C 53.585938 67.765625 47.863281 63.46875 43.71875 60.789062 C 39.570312 58.109375 35.554688 55.183594 31.066406 53.085938 C 30.261719 45.304688 29.574219 37.308594 30.355469 29.523438 C 30.613281 26.953125 28.796875 24.035156 25.824219 24.4375 C 19.089844 25.363281 13.515625 26.269531 8.367188 31.019531 C 7.910156 31.40625 7.558594 31.875 7.304688 32.414062 C 3.378906 33.511719 2.480469 39.578125 1.847656 42.855469 C 0.824219 48.128906 0.367188 53.449219 0.476562 58.820312 C 0.757812 71.460938 4.84375 83.1875 13.546875 92.449219 C 15.609375 94.597656 17.824219 96.578125 20.1875 98.386719 C 22.554688 100.199219 25.046875 101.816406 27.664062 103.242188 C 30.277344 104.664062 32.988281 105.882812 35.792969 106.890625 C 38.597656 107.898438 41.460938 108.683594 44.386719 109.25 C 53.636719 110.910156 66.660156 112.074219 75.851562 107.675781 C 79.953125 112.453125 85.273438 115.644531 90.414062 119.308594 C 96.992188 124.015625 102.472656 130.316406 108.214844 135.972656 C 119.785156 147.363281 132.660156 157.371094 144.472656 168.496094 C 144.429688 169.371094 144.617188 170.191406 145.03125 170.960938 C 145.445312 171.730469 146.03125 172.335938 146.785156 172.777344 C 142.730469 176.71875 138.691406 180.675781 134.664062 184.648438 C 134.082031 184.058594 133.484375 183.484375 132.910156 182.875 C 131.8125 181.71875 130.789062 180.503906 129.832031 179.230469 C 129.480469 178.757812 129.152344 178.269531 128.855469 177.757812 C 130.039062 174.027344 125.175781 171.277344 122.148438 173.332031 C 121.277344 172.621094 120.28125 172.335938 119.160156 172.476562 C 111.046875 173.246094 101.960938 176.601562 100.410156 185.625 C 100.179688 187.082031 100.171875 188.539062 100.386719 189.996094 C 100.597656 191.457031 101.019531 192.851562 101.652344 194.183594 C 98.128906 197.101562 94.542969 200.0625 90.414062 201.996094 C 89.234375 202.539062 88.027344 203 86.789062 203.375 C 85.65625 203.148438 84.621094 203.371094 83.679688 204.042969 L 83.25 204.359375 C 80.367188 204.984375 77.589844 205.929688 74.925781 207.191406 C 65.503906 212.082031 59.574219 222.136719 52.652344 229.78125 C 43.71875 239.605469 34.851562 249.039062 27.175781 259.933594 C 19.65625 270.789062 12.890625 282.097656 6.882812 293.855469 C 6.585938 294.378906 6.417969 294.941406 6.382812 295.542969 C 6.34375 296.144531 6.445312 296.722656 6.679688 297.277344 C 2.53125 312.070312 4.109375 327.390625 16.273438 338.363281 C 28.957031 349.789062 47.667969 358.945312 65.015625 358.261719 C 65.472656 358.242188 65.917969 358.160156 66.351562 358.015625 C 66.769531 358.355469 67.238281 358.609375 67.753906 358.773438 C 68.269531 358.9375 68.796875 359.003906 69.335938 358.972656 C 69.878906 358.941406 70.394531 358.8125 70.886719 358.589844 C 71.378906 358.363281 71.8125 358.058594 72.191406 357.671875 C 91.972656 337.910156 111.226562 317.308594 127.203125 294.28125 C 133.851562 284.703125 141.964844 274.375 141.148438 262.125 C 140.765625 256.390625 138.578125 250.851562 139.214844 245.050781 C 139.652344 241.277344 142.09375 238.28125 144.429688 235.378906 C 147.300781 236.539062 150.28125 237.019531 153.375 236.824219 C 159.644531 236.285156 163.652344 231.246094 165.460938 225.648438 C 167.824219 218.386719 161.664062 211.15625 156.722656 206.164062 C 156.726562 206.144531 156.726562 206.125 156.722656 206.105469 C 159.292969 200.773438 163.320312 196.46875 167.523438 192.410156 L 168.777344 191.214844 C 170.257812 195.570312 174.667969 198.855469 178.085938 201.59375 C 183.773438 206.148438 189.058594 211.011719 194.441406 215.941406 C 204.101562 224.800781 214.691406 232.203125 225.347656 239.769531 C 234.769531 246.445312 244.277344 253.027344 254.25 258.855469 C 258.703125 261.425781 265.386719 265.859375 271.382812 266.226562 C 265.386719 287.433594 279.757812 307.027344 298.253906 317 C 317.40625 327.320312 343.429688 326.363281 353.738281 304.5625 C 354.078125 303.871094 354.226562 303.144531 354.175781 302.375 C 354.125 301.609375 353.882812 300.90625 353.453125 300.265625 C 353.023438 299.628906 352.460938 299.140625 351.765625 298.804688 C 351.074219 298.46875 350.339844 298.332031 349.574219 298.390625 C 343.226562 298.964844 336.980469 298.082031 330.683594 297.296875 C 326.789062 296.808594 321.90625 297.296875 318.253906 295.6875 C 315.855469 294.597656 315.867188 290.859375 315.683594 288.667969 C 315.253906 284.109375 315.144531 279.546875 315.351562 274.972656 C 316.132812 264.136719 332.765625 262.84375 340.957031 262.46875 C 350.378906 262.039062 360.511719 264.292969 363.820312 274.089844 C 365.453125 278.9375 372.078125 277.011719 372.136719 272.378906 C 372.316406 263.519531 374.664062 254.9375 374.15625 246.144531 Z M 116.09375 131.675781 C 110.414062 126.273438 105.078125 120.546875 99.210938 115.320312 C 93.71875 110.457031 86.472656 107.519531 81.941406 101.625 C 81.496094 101.03125 80.941406 100.578125 80.269531 100.261719 C 79.164062 98.261719 76.691406 97.035156 74.273438 98.757812 C 67.292969 103.789062 54.992188 102.230469 47.066406 101.050781 C 37.40625 99.613281 28.597656 94.589844 21.371094 88.136719 C 13.96875 81.535156 10.363281 72.546875 9.324219 62.84375 C 8.894531 58.628906 8.929688 54.417969 9.429688 50.210938 C 9.675781 48 10.027344 45.800781 10.449219 43.617188 C 10.660156 42.523438 10.9375 41.445312 11.242188 40.375 C 11.242188 40.296875 11.242188 40.230469 11.304688 40.160156 C 11.839844 39.945312 12.285156 39.605469 12.632812 39.144531 C 12.980469 38.683594 13.1875 38.167969 13.25 37.59375 C 13.832031 37.378906 14.347656 37.058594 14.800781 36.632812 C 16.757812 34.945312 19.015625 33.9375 21.582031 33.613281 C 21.46875 41.226562 21.851562 48.816406 22.722656 56.378906 C 22.929688 58.476562 24.308594 59.632812 26.148438 60.257812 C 37.414062 64.015625 46.65625 77.839844 59.875 74.355469 C 71.867188 71.203125 79.578125 60.050781 90.179688 54.472656 C 91.570312 53.734375 92.039062 52.015625 92.058594 50.59375 C 92.125 42.6875 93.078125 34.800781 92.058594 27.003906 C 93.859375 27.410156 95.460938 28.214844 96.855469 29.425781 C 97.160156 29.515625 97.425781 29.671875 97.652344 29.898438 L 100.222656 32.464844 C 100.421875 32.667969 100.578125 32.902344 100.683594 33.167969 C 101.910156 34.457031 103.003906 35.84375 103.972656 37.335938 C 104.296875 37.382812 104.625 37.382812 104.949219 37.335938 C 106.292969 40.046875 107.351562 42.863281 108.128906 45.785156 C 109.507812 49.808594 110.433594 53.9375 110.902344 58.167969 C 111.511719 63.542969 110.902344 68.695312 107.992188 73.351562 C 106.84375 75.195312 105.675781 76.929688 104.5625 78.703125 C 104.863281 79.042969 105.203125 79.328125 105.589844 79.558594 C 118.945312 87.914062 127.992188 100.878906 138.007812 112.699219 C 143.144531 118.734375 149.03125 124.132812 154.691406 129.648438 C 160.6875 135.46875 166.789062 141.183594 173.195312 146.558594 L 173.316406 146.652344 C 166.953125 153.097656 160.464844 159.441406 153.972656 165.765625 C 141.921875 153.785156 128.429688 143.359375 116.09375 131.675781 Z M 79.9375 230.664062 C 80.480469 230.707031 81.011719 230.640625 81.53125 230.457031 L 81.761719 230.242188 C 82.15625 229.96875 82.121094 230.183594 81.675781 230.40625 C 81.851562 230.328125 82.023438 230.238281 82.1875 230.140625 C 84.652344 234.472656 87.480469 238.546875 90.679688 242.371094 C 80.578125 253 72.242188 265.214844 62.890625 276.496094 C 58 282.394531 52.875 288.09375 47.46875 293.53125 C 42.808594 298.210938 35.65625 302.722656 33.457031 309.21875 C 33.457031 309.234375 33.457031 309.246094 33.457031 309.261719 C 30.492188 306.292969 27.636719 303.234375 24.890625 300.078125 C 25.605469 299.695312 26.175781 299.160156 26.601562 298.46875 C 36.429688 282.875 49.277344 269.296875 60.910156 255.054688 C 65.023438 250.039062 69.046875 244.964844 73.175781 239.964844 C 75.019531 237.722656 76.894531 235.5 78.824219 233.316406 C 79.585938 232.460938 80.363281 231.605469 81.179688 230.746094 L 81.519531 230.421875 C 81.011719 230.621094 80.480469 230.699219 79.9375 230.664062 Z M 61.355469 335.246094 C 56.269531 330.820312 51.625 325.6875 46.628906 321.441406 C 44.203125 319.375 41.824219 317.265625 39.496094 315.105469 C 40.3125 314.625 40.855469 313.929688 41.121094 313.019531 C 43 307.480469 49.859375 303.175781 53.902344 299.179688 C 59.351562 293.792969 64.414062 288.050781 69.324219 282.144531 C 78.503906 271.164062 86.617188 259.214844 96.417969 248.765625 C 100.992188 253.378906 108.085938 259.386719 115.46875 262.90625 C 115.058594 263.546875 114.613281 264.164062 114.140625 264.804688 C 112.222656 267.371094 110.140625 269.898438 108.066406 272.378906 C 103.527344 277.824219 98.808594 283.121094 94.019531 288.34375 C 88.324219 294.566406 83.894531 301.582031 78.890625 308.398438 C 75.320312 313.265625 71.351562 317.8125 67.753906 322.714844 C 65.039062 326.449219 61.757812 329.390625 61.296875 334.28125 C 61.285156 334.605469 61.304688 334.925781 61.355469 335.246094 Z M 34.433594 264.402344 C 41.808594 253.925781 50.339844 244.714844 59.09375 235.386719 C 65.089844 228.984375 70.023438 220.460938 77.539062 215.554688 C 77.585938 217.867188 77.980469 220.117188 78.710938 222.308594 C 75.335938 223.277344 72.441406 227.574219 70.488281 229.839844 C 65.691406 235.421875 61.125 241.207031 56.492188 246.957031 C 43.992188 262.367188 30.3125 276.976562 19.535156 293.710938 C 19.210938 293.296875 18.875 292.90625 18.558594 292.492188 C 18.3125 292.183594 18.027344 291.910156 17.703125 291.679688 C 22.742188 282.257812 28.316406 273.164062 34.433594 264.402344 Z M 67.191406 350.492188 C 66.359375 349.851562 65.417969 349.566406 64.371094 349.632812 C 50.230469 350.199219 35.75 342.667969 24.855469 334.226562 C 19.332031 329.949219 15.433594 325.085938 13.640625 318.292969 C 12.160156 312.726562 12.871094 306.523438 14.40625 300.898438 C 22.144531 310.25 30.605469 318.890625 39.796875 326.824219 C 48.722656 334.613281 56.980469 344.660156 67.746094 349.933594 Z M 132.128906 268.851562 C 130.628906 275.359375 125.328125 281.8125 121.652344 287.253906 C 107.785156 307.796875 90.960938 326.328125 73.589844 344.019531 C 73.15625 343.253906 72.539062 342.679688 71.738281 342.308594 C 69.898438 341.40625 68.136719 340.371094 66.460938 339.191406 C 66.898438 339.175781 67.320312 339.078125 67.71875 338.902344 C 68.121094 338.726562 68.472656 338.480469 68.78125 338.167969 C 69.085938 337.855469 69.324219 337.496094 69.496094 337.089844 C 69.664062 336.6875 69.753906 336.265625 69.757812 335.828125 C 70.144531 331.421875 75.085938 327.210938 77.742188 323.847656 C 81.640625 318.976562 85.367188 313.960938 89 308.875 C 91.699219 305.101562 94.011719 300.71875 97.222656 297.363281 C 99.21875 295.285156 101.144531 293.152344 103.082031 291.011719 C 107.949219 285.636719 112.726562 280.175781 117.300781 274.546875 C 119.058594 272.386719 122.535156 268.914062 124.015625 265.523438 C 126.976562 266.007812 129.832031 265.652344 132.582031 264.453125 C 132.609375 265.945312 132.457031 267.421875 132.128906 268.878906 Z M 132.128906 238.511719 C 129.902344 243.644531 130.375 249.363281 131.332031 254.722656 C 128.359375 258.035156 123.898438 257.101562 119.339844 255.082031 C 112.34375 251.984375 106.34375 246.710938 101.058594 241.265625 C 95.773438 235.824219 91.089844 229.601562 88.160156 222.703125 C 87.03125 220.234375 86.425781 217.644531 86.34375 214.929688 C 86.324219 214.269531 86.453125 213.640625 86.726562 213.039062 C 87 212.4375 87.390625 211.925781 87.902344 211.507812 C 90.441406 210.972656 92.882812 210.148438 95.226562 209.042969 C 99.144531 206.875 102.796875 204.328125 106.183594 201.398438 C 106.5 201.800781 106.816406 202.253906 107.132812 202.605469 C 115.589844 213.339844 125.328125 223.601562 136.746094 231.203125 C 134.90625 233.453125 133.378906 235.898438 132.15625 238.535156 Z M 156.835938 220.390625 C 156.917969 220.613281 156.992188 220.84375 157.046875 221.074219 C 157.105469 221.308594 157.148438 221.542969 157.175781 221.78125 C 157.203125 222.019531 157.214844 222.257812 157.210938 222.496094 C 157.210938 222.734375 157.195312 222.972656 157.160156 223.210938 C 157.128906 223.449219 157.082031 223.683594 157.023438 223.914062 C 156.960938 224.144531 156.886719 224.371094 156.796875 224.59375 C 156.707031 224.816406 156.605469 225.03125 156.488281 225.242188 C 156.375 225.449219 156.246094 225.652344 156.105469 225.84375 C 155.960938 226.039062 155.808594 226.222656 155.644531 226.394531 C 155.480469 226.570312 155.308594 226.734375 155.125 226.886719 C 154.9375 227.039062 154.746094 227.179688 154.542969 227.308594 C 154.34375 227.4375 154.132812 227.554688 153.917969 227.65625 C 153.699219 227.757812 153.476562 227.847656 153.25 227.921875 C 153.023438 227.996094 152.792969 228.058594 152.558594 228.105469 C 152.324219 228.152344 152.085938 228.183594 151.847656 228.199219 C 151.609375 228.214844 151.367188 228.21875 151.128906 228.207031 C 145.707031 227.632812 140.6875 223.78125 136.566406 220.503906 C 131.109375 216.105469 126.042969 211.296875 121.363281 206.082031 C 117.765625 202.214844 114.421875 198.144531 111.332031 193.867188 C 109.753906 191.667969 108.117188 188.550781 109.179688 185.820312 C 110.664062 182.011719 116.429688 181.277344 119.863281 180.949219 C 120.175781 180.917969 120.484375 180.859375 120.789062 180.769531 C 122.289062 184.339844 125.859375 187.730469 127.941406 189.921875 C 132.222656 194.441406 137.113281 198.386719 141.277344 202.992188 C 146.347656 208.683594 153.90625 213.148438 156.835938 220.390625 Z M 150.359375 199.789062 C 147.222656 196.691406 144.070312 193.609375 140.839844 190.613281 C 160.921875 170.695312 181.617188 151.363281 200.488281 130.273438 C 209.953125 119.699219 220.136719 109.996094 230.367188 100.175781 C 239.191406 91.703125 247.035156 81.792969 256.597656 74.089844 C 257.007812 74.164062 257.421875 74.164062 257.832031 74.082031 C 258.242188 74.003906 258.625 73.851562 258.980469 73.625 C 259.335938 73.402344 259.636719 73.121094 259.882812 72.78125 C 260.132812 72.445312 260.308594 72.070312 260.417969 71.667969 C 260.621094 71.078125 261.050781 70.589844 261.273438 69.957031 C 261.273438 69.851562 261.324219 69.742188 261.359375 69.628906 C 262.070312 68.957031 262.449219 68.132812 262.5 67.15625 C 263.082031 60.832031 262.035156 54.035156 264.820312 48.136719 C 266.207031 45.195312 269.820312 42.847656 272.238281 40.820312 C 274.578125 39.011719 276.636719 36.925781 278.414062 34.5625 C 279.886719 32.457031 281.371094 30.367188 283.003906 28.382812 C 283.851562 27.316406 284.816406 26.367188 285.902344 25.542969 C 286.015625 25.460938 286.109375 25.359375 286.183594 25.242188 L 286.304688 25.292969 C 290.140625 26.78125 293.386719 30.539062 296.144531 33.441406 C 298.203125 35.605469 301.285156 39.152344 302.21875 41.222656 C 304.019531 45.277344 296.769531 51.800781 294.511719 54.257812 C 290.6875 58.332031 287.269531 62.816406 283.21875 66.675781 C 279.167969 70.539062 273.558594 71.402344 269.050781 74.210938 C 267.949219 74.28125 267.015625 74.710938 266.25 75.5 C 261.460938 80.25 256.484375 84.8125 251.757812 89.632812 C 246.460938 95.023438 241.664062 100.9375 236.6875 106.621094 C 226.605469 118.144531 216.402344 129.550781 205.851562 140.664062 C 195.296875 151.773438 185.128906 162.78125 174.644531 173.71875 C 166.515625 182.164062 156.242188 189.449219 150.359375 199.789062 Z M 364.847656 260.671875 C 359.105469 255.816406 351.140625 253.746094 343.105469 253.824219 C 331.265625 253.890625 311.898438 256.28125 307.734375 269.742188 C 306.132812 274.878906 307.058594 280.492188 307.109375 285.800781 C 307.164062 290.695312 307.351562 296.398438 310.726562 300.300781 C 314.101562 304.203125 319.292969 304.957031 324.304688 305.136719 C 330.300781 305.347656 336.175781 306.460938 342.121094 306.847656 C 321.40625 331.019531 268.339844 298.046875 280.101562 266.800781 C 280.265625 266.382812 280.363281 265.953125 280.394531 265.507812 C 280.429688 265.0625 280.394531 264.625 280.292969 264.1875 C 280.191406 263.753906 280.03125 263.34375 279.804688 262.957031 C 279.578125 262.574219 279.300781 262.230469 278.972656 261.929688 C 278.972656 259.292969 276.03125 256.527344 272.890625 257.648438 L 272.375 257.648438 C 273.273438 257.648438 271.570312 257.460938 271.355469 257.410156 C 269.980469 257.058594 268.652344 256.578125 267.371094 255.964844 C 263.078125 253.992188 258.933594 251.75 254.933594 249.234375 C 246.28125 244.007812 237.972656 238.210938 229.742188 232.347656 C 220.320312 225.679688 210.980469 219.175781 202.371094 211.472656 C 197.402344 207.023438 192.753906 202.117188 187.5 197.992188 C 185.445312 196.375 183.363281 194.800781 181.359375 193.113281 C 179.992188 192.121094 178.730469 191.007812 177.574219 189.773438 C 177.640625 189.308594 177.636719 188.839844 177.566406 188.375 C 177.496094 187.910156 177.355469 187.464844 177.152344 187.039062 C 176.949219 186.613281 176.6875 186.226562 176.367188 185.878906 C 176.046875 185.53125 175.683594 185.238281 175.277344 185 C 177.609375 182.78125 179.921875 180.539062 182.128906 178.203125 C 186.703125 173.425781 191.234375 168.597656 195.769531 163.78125 C 196.144531 164.367188 196.632812 164.835938 197.234375 165.191406 C 214.203125 175.542969 227.675781 190.597656 242.324219 203.820312 C 258.007812 217.804688 274.957031 230.035156 293.171875 240.515625 C 293.464844 240.707031 293.78125 240.855469 294.117188 240.957031 C 294.457031 241.058594 294.800781 241.113281 295.152344 241.113281 C 295.503906 241.113281 295.847656 241.058594 296.1875 240.957031 C 296.523438 240.855469 296.839844 240.707031 297.132812 240.515625 C 299.425781 241.414062 302.320312 240.617188 302.707031 237.484375 C 303.660156 229.695312 318.699219 228.128906 324.628906 227.210938 C 329.597656 226.46875 334.789062 225.628906 339.78125 226.226562 C 346.59375 227.085938 352.632812 230.910156 358.277344 234.496094 C 358.683594 234.761719 359.125 234.9375 359.605469 235.019531 C 366.875 241.457031 366.089844 251.128906 364.863281 260.671875 Z M 364.847656 260.671875"/></g></svg>