<svg xmlns="http://www.w3.org/2000/svg" width="375" viewBox="0 0 375 375" height="375" version="1.0"><defs><clipPath id="a"><path d="M 15.9375 72 L 359.4375 72 L 359.4375 374.976562 L 15.9375 374.976562 Z M 15.9375 72"/></clipPath></defs><path fill="#F58021" d="M 96.050781 142.246094 C 96.050781 142.246094 86.746094 114.714844 81.078125 107.597656 C 81.078125 107.597656 93.480469 12.273438 164.683594 8.972656 C 235.890625 5.671875 245.800781 23.640625 245.800781 23.640625 C 245.800781 23.640625 287.273438 57.738281 289.476562 83.765625 C 291.679688 109.796875 291.289062 112.730469 291.289062 112.730469 L 251.675781 119.539062 L 120.273438 157.824219 L 96.050781 142.246094"/><path fill="#FCEEA9" d="M 118.417969 184.246094 L 96.050781 160.394531 L 119.570312 146.246094 L 138.992188 184.246094 L 119.746094 195.042969 L 118.417969 184.246094"/><g clip-path="url(#a)"><path fill="#040606" d="M 267.621094 361.90625 L 346.132812 361.90625 C 342.488281 305.988281 303.460938 261.433594 256.8125 261.433594 L 237.128906 261.433594 C 236.332031 261.433594 235.535156 261.320312 234.742188 260.980469 C 234.398438 260.867188 234.171875 260.640625 233.828125 260.410156 C 233.488281 260.296875 233.148438 260.070312 232.804688 259.839844 C 232.691406 259.730469 232.691406 259.617188 232.578125 259.617188 C 232.578125 259.5 232.460938 259.5 232.460938 259.390625 C 225.863281 253.363281 220.515625 244.382812 216.53125 232.566406 C 216.078125 232.789062 215.625 232.90625 215.167969 233.019531 C 213.464844 233.589844 211.871094 234.273438 210.164062 234.722656 C 209.253906 234.953125 208.453125 235.179688 207.546875 235.40625 C 205.953125 235.746094 204.472656 236.203125 202.878906 236.429688 C 201.855469 236.65625 200.714844 236.769531 199.691406 236.996094 C 198.214844 237.222656 196.734375 237.453125 195.257812 237.566406 C 193.894531 237.679688 192.523438 237.679688 191.046875 237.792969 C 189.910156 237.792969 188.886719 237.90625 187.75 237.90625 C 187.519531 237.90625 187.292969 237.90625 187.0625 237.90625 C 183.992188 237.90625 181.035156 237.679688 178.078125 237.222656 C 176.9375 237.109375 175.800781 236.996094 174.664062 236.769531 C 172.273438 236.429688 169.882812 235.972656 167.609375 235.292969 C 165.445312 234.839844 163.511719 234.15625 161.460938 233.472656 C 160.667969 233.132812 159.753906 232.90625 158.847656 232.566406 C 154.980469 244.382812 149.632812 253.363281 143.03125 259.390625 C 142.917969 259.5 142.917969 259.5 142.800781 259.617188 C 142.6875 259.617188 142.6875 259.730469 142.578125 259.839844 C 142.347656 260.070312 142.121094 260.070312 141.777344 260.296875 C 141.4375 260.523438 140.984375 260.867188 140.640625 260.980469 C 140.1875 261.207031 139.734375 261.207031 139.164062 261.320312 C 138.933594 261.320312 138.59375 261.433594 138.253906 261.433594 L 118.566406 261.433594 C 71.917969 261.433594 33.003906 305.988281 29.25 361.90625 L 107.871094 361.90625 L 107.871094 335.3125 C 107.871094 331.671875 110.832031 328.71875 114.355469 328.71875 C 118 328.71875 120.957031 331.671875 120.957031 335.3125 L 120.957031 361.90625 L 254.535156 361.90625 L 254.535156 335.3125 C 254.535156 331.671875 257.378906 328.71875 261.023438 328.71875 C 264.664062 328.71875 267.621094 331.671875 267.621094 335.3125 Z M 359.445312 368.386719 C 359.445312 370.089844 358.761719 371.792969 357.625 373.042969 C 356.371094 374.296875 354.664062 374.976562 352.957031 374.976562 L 22.535156 374.976562 C 20.71875 374.976562 19.125 374.296875 17.871094 373.042969 C 16.617188 371.792969 15.9375 370.089844 15.9375 368.386719 C 16.960938 302.234375 63.042969 248.363281 118.566406 248.363281 L 135.410156 248.363281 C 140.070312 243.589844 143.941406 236.316406 146.902344 226.769531 C 133.585938 219.039062 122.550781 207.445312 115.382812 193.011719 C 113.902344 189.714844 115.15625 185.851562 118.457031 184.261719 C 120.5 183.238281 122.78125 183.464844 124.710938 184.488281 C 125.738281 185.167969 126.648438 186.082031 127.214844 187.21875 C 133.816406 200.855469 144.625 211.3125 157.59375 217.789062 C 159.753906 218.8125 161.917969 219.722656 164.078125 220.515625 C 164.648438 220.746094 165.105469 220.972656 165.671875 221.085938 C 167.609375 221.765625 169.539062 222.335938 171.476562 222.792969 C 172.386719 223.019531 173.410156 223.246094 174.433594 223.472656 C 176.140625 223.8125 177.734375 224.152344 179.441406 224.382812 C 181.261719 224.496094 182.96875 224.609375 184.789062 224.722656 C 190.816406 224.949219 196.960938 224.496094 202.878906 223.128906 C 203.109375 223.128906 203.222656 223.019531 203.449219 223.019531 C 205.722656 222.449219 208.003906 221.765625 210.164062 220.972656 C 210.503906 220.859375 210.730469 220.746094 210.957031 220.746094 C 213.121094 219.835938 215.394531 218.925781 217.558594 217.902344 C 239.746094 206.878906 255.105469 184.035156 255.105469 157.550781 L 255.105469 93.335938 C 241.566406 102.65625 225.066406 105.042969 207.773438 107.542969 C 180.917969 111.40625 153.042969 115.382812 128.808594 145.273438 C 127.441406 146.867188 125.625 147.664062 123.6875 147.664062 C 122.210938 147.664062 120.730469 147.207031 119.59375 146.300781 C 118 145.050781 117.089844 143.117188 117.089844 141.183594 C 117.089844 139.707031 117.542969 138.230469 118.566406 137.09375 C 146.101562 103.109375 177.964844 98.5625 205.953125 94.585938 C 226.773438 91.628906 244.753906 89.015625 256.585938 74.46875 C 256.699219 74.355469 256.8125 74.355469 256.925781 74.238281 C 257.15625 73.902344 257.496094 73.671875 257.949219 73.445312 C 258.292969 73.105469 258.519531 72.878906 258.863281 72.765625 C 259.199219 72.535156 259.65625 72.535156 260 72.421875 C 260.457031 72.308594 260.910156 72.195312 261.363281 72.082031 C 261.476562 72.082031 261.589844 72.082031 261.707031 72.082031 C 261.929688 72.082031 262.273438 72.195312 262.5 72.195312 C 262.957031 72.308594 263.410156 72.308594 263.867188 72.535156 C 264.324219 72.648438 264.664062 72.878906 265.003906 73.105469 C 265.347656 73.332031 265.574219 73.332031 265.800781 73.558594 C 265.917969 73.558594 265.917969 73.671875 266.027344 73.785156 C 266.371094 74.128906 266.597656 74.46875 266.824219 74.808594 C 267.167969 75.148438 267.390625 75.492188 267.507812 75.832031 C 267.734375 76.171875 267.734375 76.515625 267.847656 76.96875 C 267.960938 77.421875 268.078125 77.765625 268.191406 78.21875 C 268.191406 78.332031 268.191406 78.449219 268.191406 78.5625 L 268.191406 157.550781 C 268.191406 186.988281 252.261719 212.675781 228.59375 226.769531 C 231.554688 236.316406 235.308594 243.589844 239.972656 248.363281 L 256.8125 248.363281 C 312.453125 248.363281 358.417969 302.234375 359.445312 368.386719"/></g><path fill="#A2E0EC" d="M 346.132812 361.90625 L 267.621094 361.90625 L 267.621094 335.3125 C 267.621094 331.671875 264.664062 328.71875 261.023438 328.71875 C 257.378906 328.71875 254.535156 331.671875 254.535156 335.3125 L 254.535156 361.90625 L 120.957031 361.90625 L 120.957031 335.3125 C 120.957031 331.671875 118 328.71875 114.355469 328.71875 C 110.832031 328.71875 107.871094 331.671875 107.871094 335.3125 L 107.871094 361.90625 L 29.25 361.90625 C 33.003906 305.988281 71.917969 261.433594 118.566406 261.433594 L 138.253906 261.433594 C 138.59375 261.433594 138.933594 261.320312 139.164062 261.320312 C 139.734375 261.207031 140.1875 261.207031 140.640625 260.980469 C 140.984375 260.867188 141.4375 260.523438 141.777344 260.296875 C 142.121094 260.070312 142.347656 260.070312 142.578125 259.839844 C 142.6875 259.730469 142.6875 259.617188 142.800781 259.617188 C 142.917969 259.5 142.917969 259.5 143.03125 259.390625 C 149.632812 253.363281 154.980469 244.382812 158.847656 232.566406 C 159.753906 232.90625 160.667969 233.132812 161.460938 233.472656 C 163.511719 234.15625 165.445312 234.839844 167.609375 235.292969 C 169.882812 235.972656 172.273438 236.429688 174.664062 236.769531 C 175.800781 236.996094 176.9375 237.109375 178.078125 237.222656 C 181.035156 237.679688 183.992188 237.90625 187.0625 237.90625 C 187.292969 237.90625 187.519531 237.90625 187.75 237.90625 C 188.886719 237.90625 189.910156 237.792969 191.046875 237.792969 C 192.523438 237.679688 193.894531 237.679688 195.257812 237.566406 C 196.734375 237.453125 198.214844 237.222656 199.691406 236.996094 C 200.714844 236.769531 201.855469 236.65625 202.878906 236.429688 C 204.472656 236.203125 205.953125 235.746094 207.546875 235.40625 C 208.453125 235.179688 209.253906 234.953125 210.164062 234.722656 C 211.871094 234.273438 213.464844 233.589844 215.167969 233.019531 C 215.625 232.90625 216.078125 232.789062 216.53125 232.566406 C 220.515625 244.382812 225.863281 253.363281 232.460938 259.390625 C 232.460938 259.5 232.578125 259.5 232.578125 259.617188 C 232.691406 259.617188 232.691406 259.730469 232.804688 259.839844 C 233.148438 260.070312 233.488281 260.296875 233.828125 260.410156 C 234.171875 260.640625 234.398438 260.867188 234.742188 260.980469 C 235.535156 261.320312 236.332031 261.433594 237.128906 261.433594 L 256.8125 261.433594 C 303.460938 261.433594 342.488281 305.988281 346.132812 361.90625"/><path fill="#040606" d="M 87.960938 171.304688 L 87.960938 126.410156 C 87.960938 122.65625 84.886719 119.589844 81.132812 119.589844 C 77.265625 119.589844 74.195312 122.65625 74.195312 126.410156 L 74.195312 171.304688 C 74.195312 175.054688 77.265625 178.121094 81.132812 178.121094 C 84.886719 178.121094 87.960938 175.054688 87.960938 171.304688 Z M 197.417969 188.464844 L 197.417969 187.667969 C 197.417969 185.851562 195.824219 184.261719 194.003906 184.261719 L 181.375 184.261719 C 179.554688 184.261719 178.078125 185.851562 178.078125 187.667969 L 178.078125 188.464844 C 178.078125 190.285156 179.554688 191.761719 181.375 191.761719 L 194.003906 191.761719 C 195.824219 191.761719 197.417969 190.285156 197.417969 188.464844 Z M 301.300781 171.304688 L 301.300781 126.410156 C 301.300781 122.65625 298.117188 119.589844 294.359375 119.589844 C 290.605469 119.589844 287.417969 122.65625 287.417969 126.410156 L 287.417969 171.304688 C 287.417969 175.054688 290.605469 178.121094 294.359375 178.121094 C 298.117188 178.121094 301.300781 175.054688 301.300781 171.304688 Z M 314.269531 126.410156 L 314.269531 171.304688 C 314.269531 182.214844 305.398438 191.195312 294.359375 191.195312 C 283.324219 191.195312 274.445312 182.214844 274.445312 171.304688 L 274.445312 126.410156 C 274.445312 117.773438 279.910156 110.496094 287.53125 107.769531 C 284.800781 55.03125 241.109375 12.980469 187.75 12.980469 C 134.269531 12.980469 90.691406 55.03125 87.847656 107.769531 C 95.472656 110.496094 101.046875 117.773438 101.046875 126.410156 L 101.046875 150.503906 C 109.007812 156.300781 136.089844 175.054688 166.472656 180.851562 C 169.085938 175.28125 174.777344 171.304688 181.375 171.304688 L 194.003906 171.304688 C 203.109375 171.304688 210.503906 178.578125 210.503906 187.667969 L 210.503906 188.464844 C 210.503906 197.445312 203.109375 204.832031 194.003906 204.832031 L 181.375 204.832031 C 174.320312 204.832031 168.289062 200.289062 166.015625 194.035156 C 151.5625 191.535156 138.023438 186.417969 126.417969 180.851562 C 115.949219 175.851562 107.417969 170.621094 101.046875 166.414062 L 101.046875 171.304688 C 101.046875 182.214844 92.054688 191.195312 81.132812 191.195312 C 70.097656 191.195312 61.109375 182.214844 61.109375 171.304688 L 61.109375 126.410156 C 61.109375 117.660156 66.910156 110.269531 74.875 107.542969 C 77.71875 47.757812 127.101562 0.0234375 187.75 0.0234375 C 248.277344 0.0234375 297.773438 47.757812 300.617188 107.542969 C 308.585938 110.269531 314.269531 117.660156 314.269531 126.410156"/><path fill="#59B7C0" d="M 301.300781 126.410156 L 301.300781 171.304688 C 301.300781 175.054688 298.117188 178.121094 294.359375 178.121094 C 290.605469 178.121094 287.417969 175.054688 287.417969 171.304688 L 287.417969 126.410156 C 287.417969 122.65625 290.605469 119.589844 294.359375 119.589844 C 298.117188 119.589844 301.300781 122.65625 301.300781 126.410156"/><path fill="#FCEEA9" d="M 255.105469 93.335938 L 255.105469 157.550781 C 255.105469 184.035156 239.746094 206.878906 217.558594 217.902344 C 215.394531 218.925781 213.121094 219.835938 210.957031 220.746094 C 210.730469 220.746094 210.503906 220.859375 210.164062 220.972656 C 208.003906 221.765625 205.722656 222.449219 203.449219 223.019531 C 203.222656 223.019531 203.109375 223.128906 202.878906 223.128906 C 196.960938 224.496094 190.816406 224.949219 184.789062 224.722656 C 182.96875 224.609375 181.261719 224.496094 179.441406 224.382812 C 177.734375 224.152344 176.140625 223.8125 174.433594 223.472656 C 173.410156 223.246094 172.386719 223.019531 171.476562 222.792969 C 169.539062 222.335938 167.609375 221.765625 165.671875 221.085938 C 165.105469 220.972656 164.648438 220.746094 164.078125 220.515625 C 161.917969 219.722656 159.753906 218.8125 157.59375 217.789062 C 144.625 211.3125 133.816406 200.855469 127.214844 187.21875 C 126.648438 186.082031 125.738281 185.167969 124.710938 184.488281 L 126.417969 180.851562 C 138.023438 186.417969 151.5625 191.535156 166.015625 194.035156 C 168.289062 200.289062 174.320312 204.832031 181.375 204.832031 L 194.003906 204.832031 C 203.109375 204.832031 210.503906 197.445312 210.503906 188.464844 L 210.503906 187.667969 C 210.503906 178.578125 203.109375 171.304688 194.003906 171.304688 L 181.375 171.304688 C 174.777344 171.304688 169.085938 175.28125 166.472656 180.851562 C 136.089844 175.054688 109.007812 156.300781 101.046875 150.503906 L 101.046875 141.183594 L 117.089844 141.183594 C 117.089844 143.117188 118 145.050781 119.59375 146.300781 C 120.730469 147.207031 122.210938 147.664062 123.6875 147.664062 C 125.625 147.664062 127.441406 146.867188 128.808594 145.273438 C 153.042969 115.382812 180.917969 111.40625 207.773438 107.542969 C 225.066406 105.042969 241.566406 102.65625 255.105469 93.335938"/><path fill="#59B7C0" d="M 197.417969 187.667969 L 197.417969 188.464844 C 197.417969 190.285156 195.824219 191.761719 194.003906 191.761719 L 181.375 191.761719 C 179.554688 191.761719 178.078125 190.285156 178.078125 188.464844 L 178.078125 187.667969 C 178.078125 185.851562 179.554688 184.261719 181.375 184.261719 L 194.003906 184.261719 C 195.824219 184.261719 197.417969 185.851562 197.417969 187.667969"/><path fill="#59B7C0" d="M 87.960938 126.410156 L 87.960938 171.304688 C 87.960938 175.054688 84.886719 178.121094 81.132812 178.121094 C 77.265625 178.121094 74.195312 175.054688 74.195312 171.304688 L 74.195312 126.410156 C 74.195312 122.65625 77.265625 119.589844 81.132812 119.589844 C 84.886719 119.589844 87.960938 122.65625 87.960938 126.410156"/></svg>